<svg width="22" height="16" viewBox="0 0 22 16" fill="none" xmlns="http://www.w3.org/2000/svg">
<path fill-rule="evenodd" clip-rule="evenodd" d="M0 0H21.0868V15.062H0V0Z" fill="url(#paint0_linear_3831_591)"/>
<path fill-rule="evenodd" clip-rule="evenodd" d="M0 0H21.0868V1.00413H0V0ZM0 2.00827H21.0868V3.0124H0V2.00827ZM0 4.01654H21.0868V5.02067H0V4.01654ZM0 6.0248H21.0868V7.02894H0V6.0248ZM0 8.03307H21.0868V9.03721H0V8.03307ZM0 10.0413H21.0868V11.0455H0V10.0413ZM0 12.0496H21.0868V13.0537H0V12.0496ZM0 14.0579H21.0868V15.062H0V14.0579Z" fill="url(#paint1_linear_3831_591)"/>
<path fill-rule="evenodd" clip-rule="evenodd" d="M0 0H9.03721V7.02894H0V0Z" fill="url(#paint2_linear_3831_591)"/>
<path fill-rule="evenodd" clip-rule="evenodd" d="M1.50597 2.00804C1.22869 2.00804 1.00391 1.78326 1.00391 1.50597C1.00391 1.22869 1.22869 1.00391 1.50597 1.00391C1.78326 1.00391 2.00804 1.22869 2.00804 1.50597C2.00804 1.78326 1.78326 2.00804 1.50597 2.00804ZM3.51424 2.00804C3.23696 2.00804 3.01217 1.78326 3.01217 1.50597C3.01217 1.22869 3.23696 1.00391 3.51424 1.00391C3.79153 1.00391 4.01631 1.22869 4.01631 1.50597C4.01631 1.78326 3.79153 2.00804 3.51424 2.00804ZM5.52251 2.00804C5.24523 2.00804 5.02044 1.78326 5.02044 1.50597C5.02044 1.22869 5.24523 1.00391 5.52251 1.00391C5.79979 1.00391 6.02458 1.22869 6.02458 1.50597C6.02458 1.78326 5.79979 2.00804 5.52251 2.00804ZM7.53078 2.00804C7.25349 2.00804 7.02871 1.78326 7.02871 1.50597C7.02871 1.22869 7.25349 1.00391 7.53078 1.00391C7.80806 1.00391 8.03284 1.22869 8.03284 1.50597C8.03284 1.78326 7.80806 2.00804 7.53078 2.00804ZM2.51011 3.01217C2.23282 3.01217 2.00804 2.78739 2.00804 2.51011C2.00804 2.23282 2.23282 2.00804 2.51011 2.00804C2.78739 2.00804 3.01217 2.23282 3.01217 2.51011C3.01217 2.78739 2.78739 3.01217 2.51011 3.01217ZM4.51838 3.01217C4.24109 3.01217 4.01631 2.78739 4.01631 2.51011C4.01631 2.23282 4.24109 2.00804 4.51838 2.00804C4.79566 2.00804 5.02044 2.23282 5.02044 2.51011C5.02044 2.78739 4.79566 3.01217 4.51838 3.01217ZM6.52664 3.01217C6.24936 3.01217 6.02458 2.78739 6.02458 2.51011C6.02458 2.23282 6.24936 2.00804 6.52664 2.00804C6.80393 2.00804 7.02871 2.23282 7.02871 2.51011C7.02871 2.78739 6.80393 3.01217 6.52664 3.01217ZM7.53078 4.01631C7.25349 4.01631 7.02871 3.79153 7.02871 3.51424C7.02871 3.23696 7.25349 3.01217 7.53078 3.01217C7.80806 3.01217 8.03284 3.23696 8.03284 3.51424C8.03284 3.79153 7.80806 4.01631 7.53078 4.01631ZM5.52251 4.01631C5.24523 4.01631 5.02044 3.79153 5.02044 3.51424C5.02044 3.23696 5.24523 3.01217 5.52251 3.01217C5.79979 3.01217 6.02458 3.23696 6.02458 3.51424C6.02458 3.79153 5.79979 4.01631 5.52251 4.01631ZM3.51424 4.01631C3.23696 4.01631 3.01217 3.79153 3.01217 3.51424C3.01217 3.23696 3.23696 3.01217 3.51424 3.01217C3.79153 3.01217 4.01631 3.23696 4.01631 3.51424C4.01631 3.79153 3.79153 4.01631 3.51424 4.01631ZM1.50597 4.01631C1.22869 4.01631 1.00391 3.79153 1.00391 3.51424C1.00391 3.23696 1.22869 3.01217 1.50597 3.01217C1.78326 3.01217 2.00804 3.23696 2.00804 3.51424C2.00804 3.79153 1.78326 4.01631 1.50597 4.01631ZM2.51011 5.02044C2.23282 5.02044 2.00804 4.79566 2.00804 4.51838C2.00804 4.24109 2.23282 4.01631 2.51011 4.01631C2.78739 4.01631 3.01217 4.24109 3.01217 4.51838C3.01217 4.79566 2.78739 5.02044 2.51011 5.02044ZM4.51838 5.02044C4.24109 5.02044 4.01631 4.79566 4.01631 4.51838C4.01631 4.24109 4.24109 4.01631 4.51838 4.01631C4.79566 4.01631 5.02044 4.24109 5.02044 4.51838C5.02044 4.79566 4.79566 5.02044 4.51838 5.02044ZM6.52664 5.02044C6.24936 5.02044 6.02458 4.79566 6.02458 4.51838C6.02458 4.24109 6.24936 4.01631 6.52664 4.01631C6.80393 4.01631 7.02871 4.24109 7.02871 4.51838C7.02871 4.79566 6.80393 5.02044 6.52664 5.02044ZM7.53078 6.02458C7.25349 6.02458 7.02871 5.79979 7.02871 5.52251C7.02871 5.24523 7.25349 5.02044 7.53078 5.02044C7.80806 5.02044 8.03284 5.24523 8.03284 5.52251C8.03284 5.79979 7.80806 6.02458 7.53078 6.02458ZM5.52251 6.02458C5.24523 6.02458 5.02044 5.79979 5.02044 5.52251C5.02044 5.24523 5.24523 5.02044 5.52251 5.02044C5.79979 5.02044 6.02458 5.24523 6.02458 5.52251C6.02458 5.79979 5.79979 6.02458 5.52251 6.02458ZM3.51424 6.02458C3.23696 6.02458 3.01217 5.79979 3.01217 5.52251C3.01217 5.24523 3.23696 5.02044 3.51424 5.02044C3.79153 5.02044 4.01631 5.24523 4.01631 5.52251C4.01631 5.79979 3.79153 6.02458 3.51424 6.02458ZM1.50597 6.02458C1.22869 6.02458 1.00391 5.79979 1.00391 5.52251C1.00391 5.24523 1.22869 5.02044 1.50597 5.02044C1.78326 5.02044 2.00804 5.24523 2.00804 5.52251C2.00804 5.79979 1.78326 6.02458 1.50597 6.02458Z" fill="url(#paint3_linear_3831_591)"/>
<defs>
<linearGradient id="paint0_linear_3831_591" x1="221.412" y1="0" x2="221.412" y2="225.93" gradientUnits="userSpaceOnUse">
<stop stop-color="white"/>
<stop offset="1" stop-color="#F0F0F0"/>
</linearGradient>
<linearGradient id="paint1_linear_3831_591" x1="221.412" y1="0" x2="221.412" y2="225.93" gradientUnits="userSpaceOnUse">
<stop stop-color="#D02F44"/>
<stop offset="1" stop-color="#B12537"/>
</linearGradient>
<linearGradient id="paint2_linear_3831_591" x1="94.8907" y1="0" x2="94.8907" y2="105.434" gradientUnits="userSpaceOnUse">
<stop stop-color="#46467F"/>
<stop offset="1" stop-color="#3C3C6D"/>
</linearGradient>
<linearGradient id="paint3_linear_3831_591" x1="74.8078" y1="1.00391" x2="74.8078" y2="76.314" gradientUnits="userSpaceOnUse">
<stop stop-color="white"/>
<stop offset="1" stop-color="#F0F0F0"/>
</linearGradient>
</defs>
</svg>
